<?xml version="1.0" standalone="no"?>
<!DOCTYPE svg PUBLIC "-//W3C//DTD SVG 20010904//EN"
 "http://www.w3.org/TR/2001/REC-SVG-20010904/DTD/svg10.dtd">
<svg version="1.0" xmlns="http://www.w3.org/2000/svg"
 width="2134.000000pt" height="1509.000000pt" viewBox="0 0 2134.000000 1509.000000"
 preserveAspectRatio="xMidYMid meet">

<g transform="translate(0.000000,1509.000000) scale(0.100000,-0.100000)"
fill="#000000" stroke="none">
<path d="M9862 11180 c-44 -9 -83 -33 -116 -69 -17 -19 -30 -21 -113 -21 -103
0 -115 -7 -97 -58 8 -23 81 -90 128 -117 16 -9 14 -15 -14 -67 -55 -101 -51
-196 9 -272 25 -32 28 -40 20 -78 -4 -24 -12 -55 -18 -71 l-11 -27 -49 27
c-45 25 -51 26 -76 13 -14 -8 -32 -28 -39 -45 -7 -16 -43 -57 -79 -90 -73 -65
-122 -126 -179 -219 -38 -61 -43 -72 -81 -156 -11 -25 -25 -54 -30 -65 -18
-35 -98 -267 -133 -382 -31 -105 -60 -182 -85 -227 -11 -20 -22 -112 -12 -102
3 3 12 1 19 -5 11 -9 9 -18 -6 -47 -11 -20 -20 -53 -20 -74 0 -69 3 -68 -154
-68 -223 1 -663 18 -750 30 -94 14 -124 8 -132 -24 -3 -15 48 -184 155 -504
89 -264 161 -484 161 -488 0 -9 -126 2 -172 16 -71 21 -89 64 -27 66 19 0 40
1 47 2 21 3 13 29 -14 51 -38 30 -94 28 -133 -5 -64 -54 -29 -134 79 -181 42
-18 47 -25 73 -91 15 -39 27 -76 27 -81 0 -5 -42 -32 -93 -60 -51 -28 -122
-75 -158 -104 -62 -50 -186 -182 -240 -257 -30 -41 -107 -177 -134 -237 -11
-24 -23 -43 -27 -43 -8 0 -45 46 -50 62 -8 23 -50 -6 -77 -54 -49 -85 -50
-189 -2 -173 11 3 26 -4 40 -19 22 -24 22 -25 10 -143 -7 -66 -9 -127 -6 -137
4 -11 18 -16 46 -16 43 0 51 -12 51 -83 0 -73 54 -265 102 -362 164 -335 482
-569 843 -620 126 -18 203 -18 335 0 301 40 585 216 759 469 126 183 197 436
189 674 l-3 107 72 3 c83 3 77 9 118 -116 22 -66 36 -89 69 -119 22 -20 43
-49 46 -63 3 -17 13 -26 29 -28 21 -3 23 -8 18 -42 -5 -36 -3 -39 35 -56 42
-19 163 -22 196 -5 9 5 48 21 87 36 50 19 83 40 117 75 26 27 48 55 48 63 0 8
9 22 20 32 16 14 20 31 20 80 0 78 -27 145 -83 202 -22 24 -39 45 -36 47 57
61 1035 1036 1040 1036 6 0 25 -58 39 -117 7 -31 6 -33 -29 -44 -111 -36 -259
-139 -378 -262 -163 -171 -292 -396 -352 -617 -33 -121 -51 -232 -51 -313 0
-87 10 -103 68 -112 83 -14 85 -17 109 -91 26 -78 28 -83 73 -179 106 -229
321 -446 555 -563 93 -46 208 -82 329 -103 136 -23 186 -24 329 -3 339 49 624
246 791 547 88 157 128 317 130 512 3 334 -111 609 -356 861 l-99 101 44 -10
c56 -12 100 -3 95 21 -8 42 -244 167 -393 208 -151 42 -403 73 -591 74 -51 1
-61 4 -77 25 l-18 25 103 0 c198 0 452 40 539 85 33 18 35 22 54 160 30 208
34 250 35 319 0 38 5 98 11 134 15 85 9 90 -80 58 -95 -34 -251 -73 -327 -81
l-60 -7 -19 41 -19 42 -30 -31 c-26 -25 -28 -32 -16 -40 22 -13 6 -22 -50 -28
-33 -3 -50 -1 -50 7 0 6 -7 11 -15 11 -8 0 -15 -7 -15 -15 0 -16 -47 -20 -189
-15 l-74 2 6 -43 c7 -51 111 -371 155 -476 16 -40 27 -75 24 -78 -3 -3 -20 -5
-37 -5 -31 0 -33 3 -48 58 -8 31 -33 120 -56 196 -23 77 -46 169 -52 205 -5
36 -18 75 -28 86 -14 16 -79 209 -107 316 -2 9 5 24 16 34 11 10 20 24 20 31
0 6 24 26 54 43 54 30 75 64 73 116 -1 32 -39 73 -75 81 -15 3 -56 16 -92 30
-36 13 -75 24 -86 24 -11 0 -36 12 -55 26 -45 34 -124 74 -146 74 -9 0 -56 19
-103 43 -83 41 -88 42 -185 42 -88 1 -106 4 -152 28 -28 15 -54 31 -57 36 -4
5 -40 28 -81 50 l-74 41 -122 182 c-125 186 -162 237 -332 454 l-98 125 26 57
c14 31 33 64 42 74 15 17 18 17 61 -7 80 -45 103 -31 166 97 15 31 33 59 41
61 8 4 13 26 13 69 1 68 30 162 60 188 9 8 30 31 46 50 28 34 28 36 22 124
-10 128 -50 193 -141 232 -47 20 -207 28 -273 14z m-35 -1773 c108 -100 272
-240 341 -290 80 -58 128 -74 180 -59 38 11 128 4 207 -16 22 -6 73 -16 112
-22 40 -7 75 -16 79 -21 3 -5 -2 -9 -11 -9 -8 0 -41 -13 -73 -29 -31 -15 -62
-26 -69 -24 -19 7 -72 -25 -153 -91 -92 -75 -109 -94 -110 -125 0 -59 63 -78
135 -40 52 27 142 114 166 161 33 64 107 89 191 64 78 -23 221 -119 229 -154
6 -23 7 -24 8 -4 1 26 7 27 41 7 14 -8 37 -14 52 -15 40 0 54 -33 121 -280
l20 -76 -119 -145 c-65 -79 -159 -193 -209 -254 -49 -60 -146 -177 -215 -260
-69 -83 -174 -211 -235 -285 -60 -73 -137 -165 -170 -204 -34 -39 -67 -81 -75
-92 -8 -12 -44 -56 -79 -98 -94 -112 -93 -112 -191 86 -77 155 -130 288 -130
322 0 9 12 35 26 57 22 35 144 284 144 294 0 2 17 41 38 87 22 45 46 101 54
123 9 22 26 67 39 100 13 33 24 81 24 106 0 43 -5 52 -61 115 -73 84 -223 257
-322 373 -40 47 -87 100 -103 116 -43 44 -99 111 -99 119 0 4 13 18 29 32 24
20 30 34 36 87 3 34 15 107 25 162 10 55 22 120 25 145 10 77 16 100 26 100 5
0 39 -28 76 -63z m1254 -447 c51 0 63 -4 91 -29 28 -25 30 -31 19 -45 -24 -28
-83 -20 -168 25 -102 53 -111 63 -49 55 27 -3 75 -6 107 -6z m-2053 -447 c46
-102 48 -117 18 -137 -16 -10 -26 -26 -26 -40 0 -39 76 -134 135 -167 60 -34
64 -40 141 -229 25 -63 69 -162 96 -220 28 -58 56 -121 64 -140 23 -62 51
-133 98 -248 25 -62 46 -118 46 -125 0 -6 -22 22 -50 62 -100 151 -264 314
-392 389 -40 23 -74 46 -76 51 -2 5 6 29 16 53 11 24 27 59 35 79 11 27 22 38
46 42 28 6 31 10 31 43 l0 36 -196 -7 c-188 -7 -196 -7 -190 11 7 23 42 167
60 245 8 30 18 71 25 90 11 34 28 97 57 217 9 34 19 62 23 62 5 0 22 -30 39
-67z m2326 -347 c14 -46 26 -90 26 -98 0 -8 -33 -46 -72 -85 -94 -92 -357
-363 -812 -836 -121 -125 -224 -226 -229 -224 -24 8 -13 27 76 137 115 145
108 136 155 190 32 37 221 270 322 396 14 17 81 98 150 180 69 82 154 185 190
229 65 81 163 195 167 195 1 0 13 -38 27 -84z m-1600 -68 c-7 -21 -18 -46 -23
-56 -8 -14 -10 -15 -15 -2 -13 39 -46 168 -46 180 0 8 22 -8 49 -34 l49 -49
-14 -39z m-717 -230 c5 -16 -46 -118 -59 -118 -7 0 -60 14 -118 31 -184 53
-382 59 -609 18 -58 -11 -110 -19 -116 -19 -14 0 -31 29 -39 65 l-6 30 472 0
c260 0 474 -3 475 -7z m-248 -351 c40 -14 75 -28 78 -31 4 -4 -174 -410 -278
-633 -39 -85 -59 -104 -59 -55 0 17 -3 23 -8 14 -6 -8 -60 116 -150 340 l-142
353 32 13 c60 26 113 31 283 28 152 -3 178 -6 244 -29z m3411 -2 c119 -38 220
-89 309 -155 87 -65 106 -84 95 -101 -4 -7 -3 -9 3 -6 34 21 165 -179 217
-333 67 -200 49 -470 -45 -664 -13 -25 -27 -46 -31 -46 -4 0 -8 -7 -8 -16 0
-25 -65 -124 -118 -179 -137 -144 -218 -201 -378 -267 -138 -57 -364 -98 -364
-66 0 9 -3 9 -12 0 -17 -17 -62 -15 -179 8 -80 15 -128 32 -223 79 -112 55
-246 150 -246 173 0 6 -11 19 -25 30 -58 45 -185 261 -185 313 0 12 -5 26 -11
32 -15 15 -49 178 -49 235 l0 48 424 0 425 0 18 -30 c9 -16 23 -30 30 -30 7 0
13 -4 13 -9 0 -5 17 -8 38 -8 21 0 45 -3 53 -8 8 -4 11 -5 7 0 -4 4 -3 14 3
22 10 11 15 11 28 1 14 -12 14 -11 2 5 -12 15 -9 21 10 19 4 -1 5 8 2 18 -4
15 0 20 13 20 17 0 17 1 -1 14 -17 12 -18 16 -5 32 8 10 10 15 4 11 -13 -8
-27 19 -18 34 3 5 2 9 -3 8 -4 -1 -27 7 -50 17 l-42 19 -55 165 c-30 91 -89
264 -131 384 -41 121 -75 221 -75 222 0 5 95 33 125 37 17 3 102 4 190 2 142
-3 170 -6 245 -30z m-3983 -195 c29 -74 67 -166 83 -205 16 -38 54 -135 85
-215 52 -133 55 -145 39 -157 -9 -7 -20 -10 -24 -8 -5 3 -11 -6 -14 -20 -5
-20 -13 -25 -37 -25 -16 0 -43 7 -59 15 -65 34 -113 43 -52 11 35 -20 29 -19
-108 4 -63 11 -189 31 -280 45 -214 34 -250 43 -250 65 0 24 37 129 55 157 8
12 15 27 15 33 0 23 94 156 154 218 106 111 269 225 315 220 21 -3 31 -20 78
-138z m3331 68 c17 -40 50 -118 72 -173 23 -55 48 -113 55 -130 52 -117 145
-343 145 -351 0 -4 -8 0 -17 7 -10 7 -7 1 6 -14 20 -21 22 -30 13 -39 -22 -22
-45 -21 -532 22 -63 6 -146 13 -185 16 -130 10 -135 11 -135 43 0 65 51 207
111 306 64 106 107 158 205 242 52 46 206 143 225 143 3 0 20 -33 37 -72z
m-2521 20 c49 -31 116 -90 157 -136 15 -18 16 -24 6 -37 -14 -17 0 -21 17 -4
10 10 32 -12 104 -106 36 -47 115 -203 107 -211 -11 -10 -658 -104 -658 -95 0
2 10 16 23 30 17 19 12 17 -21 -8 -25 -20 -59 -35 -83 -38 l-41 -6 15 29 c8
16 27 56 42 89 15 33 65 137 110 230 45 94 95 198 111 233 17 38 34 62 44 62
9 0 39 -15 67 -32z m-1177 -698 c129 -22 297 -50 373 -62 75 -12 137 -26 137
-31 0 -6 -90 -8 -242 -4 -134 3 -229 2 -213 -3 17 -4 128 -8 247 -9 211 -1
218 -2 229 -22 9 -17 8 -23 -2 -30 -10 -6 -8 -9 9 -9 12 0 25 -7 28 -15 4 -8
15 -15 25 -15 11 0 19 -7 19 -16 0 -12 3 -14 13 -6 27 23 36 -3 40 -108 l3
-105 2 106 c2 86 5 108 17 113 9 3 18 -1 22 -11 5 -13 8 -12 15 7 l9 23 27
-24 c58 -53 75 -61 34 -18 -37 39 -41 48 -28 58 12 10 21 9 45 -4 17 -8 31
-12 31 -7 0 5 -11 14 -25 20 -24 11 -32 31 -18 46 4 4 6 24 4 46 -3 45 -4 45
119 55 111 9 546 45 616 52 39 3 64 2 68 -5 7 -13 9 -105 3 -242 -4 -94 -28
-193 -66 -268 -13 -27 -20 -32 -41 -27 l-25 6 22 -18 22 -18 -45 -75 c-54 -89
-130 -180 -150 -180 -9 0 -13 -4 -10 -9 8 -12 -75 -81 -155 -129 -69 -42 -174
-87 -254 -108 -67 -19 -232 -37 -247 -28 -6 4 -37 6 -68 5 -31 -1 -88 5 -126
14 -85 19 -204 64 -204 76 0 5 -9 9 -19 9 -25 0 -186 107 -231 154 -32 34 -33
38 -21 59 13 20 13 21 -3 8 -14 -12 -20 -11 -43 10 -57 53 -173 256 -173 303
0 9 -6 29 -14 44 -20 40 -36 157 -36 270 0 122 7 162 29 162 9 0 122 -18 251
-40z m2354 -212 c50 -22 41 -88 -12 -88 -50 0 -69 45 -35 82 19 21 16 21 47 6z"/>
<path d="M11078 8698 c9 -9 15 -9 24 0 9 9 7 12 -12 12 -19 0 -21 -3 -12 -12z"/>
<path d="M12186 7153 c-6 -14 -5 -15 5 -6 7 7 10 15 7 18 -3 3 -9 -2 -12 -12z"/>
<path d="M12468 6803 c7 -3 16 -2 19 1 4 3 -2 6 -13 5 -11 0 -14 -3 -6 -6z"/>
<path d="M12048 6663 c6 -2 18 -2 25 0 6 3 1 5 -13 5 -14 0 -19 -2 -12 -5z"/>
<path d="M11913 6400 c0 -30 2 -43 4 -27 2 15 2 39 0 55 -2 15 -4 2 -4 -28z"/>
<path d="M11665 6390 c-3 -5 -1 -10 4 -10 6 0 11 5 11 10 0 6 -2 10 -4 10 -3
0 -8 -4 -11 -10z"/>
<path d="M11248 6383 c7 -3 16 -2 19 1 4 3 -2 6 -13 5 -11 0 -14 -3 -6 -6z"/>
<path d="M7957 6859 c7 -7 15 -10 18 -7 3 3 -2 9 -12 12 -14 6 -15 5 -6 -5z"/>
<path d="M8070 6800 c20 -13 33 -13 25 0 -3 6 -14 10 -23 10 -15 0 -15 -2 -2
-10z"/>
<path d="M8170 6750 c8 -5 20 -10 25 -10 6 0 3 5 -5 10 -8 5 -19 10 -25 10 -5
0 -3 -5 5 -10z"/>
<path d="M9029 7083 c-19 -21 -23 -29 -9 -18 48 39 64 55 54 55 -6 0 -26 -17
-45 -37z"/>
<path d="M8935 7000 c-3 -5 -2 -10 4 -10 5 0 13 5 16 10 3 6 2 10 -4 10 -5 0
-13 -4 -16 -10z"/>
<path d="M8870 6939 c0 -5 5 -7 10 -4 6 3 10 8 10 11 0 2 -4 4 -10 4 -5 0 -10
-5 -10 -11z"/>
<path d="M8878 6583 c34 -2 90 -2 125 0 34 2 6 3 -63 3 -69 0 -97 -1 -62 -3z"/>
<path d="M8581 6425 c1 -19 18 -51 18 -35 0 8 -4 22 -9 30 -5 8 -9 11 -9 5z"/>
<path d="M7905 6390 c-19 -8 -19 -9 2 -9 12 -1 25 4 28 9 7 12 -2 12 -30 0z"/>
<path d="M8395 6349 c-4 -6 -5 -12 -2 -15 2 -3 7 2 10 11 7 17 1 20 -8 4z"/>
<path d="M8230 6329 c0 -5 5 -7 10 -4 6 3 10 8 10 11 0 2 -4 4 -10 4 -5 0 -10
-5 -10 -11z"/>
<path d="M8785 6300 c3 -5 8 -10 11 -10 2 0 4 5 4 10 0 6 -5 10 -11 10 -5 0
-7 -4 -4 -10z"/>
<path d="M9215 6250 c3 -5 11 -10 16 -10 6 0 7 5 4 10 -3 6 -11 10 -16 10 -6
0 -7 -4 -4 -10z"/>
<path d="M8075 6190 c-3 -5 -2 -10 4 -10 5 0 13 5 16 10 3 6 2 10 -4 10 -5 0
-13 -4 -16 -10z"/>
<path d="M7995 6110 c-3 -5 -1 -10 4 -10 6 0 11 5 11 10 0 6 -2 10 -4 10 -3 0
-8 -4 -11 -10z"/>
<path d="M8276 6103 c-6 -14 -5 -15 5 -6 7 7 10 15 7 18 -3 3 -9 -2 -12 -12z"/>
<path d="M8980 6101 c0 -5 5 -13 10 -16 6 -3 10 -2 10 4 0 5 -4 13 -10 16 -5
3 -10 2 -10 -4z"/>
<path d="M8236 6023 c-6 -14 -5 -15 5 -6 7 7 10 15 7 18 -3 3 -9 -2 -12 -12z"/>
<path d="M9100 5970 c0 -5 5 -10 11 -10 5 0 7 5 4 10 -3 6 -8 10 -11 10 -2 0
-4 -4 -4 -10z"/>
<path d="M8363 9623 c9 -2 25 -2 35 0 9 3 1 5 -18 5 -19 0 -27 -2 -17 -5z"/>
<path d="M8315 9610 c-3 -6 1 -7 9 -4 18 7 21 14 7 14 -6 0 -13 -4 -16 -10z"/>
<path d="M8298 9548 c6 -6 18 -8 28 -6 14 3 12 5 -9 10 -19 3 -25 2 -19 -4z"/>
<path d="M8871 9540 c-1 -14 -4 -36 -6 -50 l-6 -25 11 25 c6 13 9 36 7 50 l-4
25 -2 -25z"/>
<path d="M7962 9530 c-18 -11 -38 -31 -44 -45 -10 -22 -9 -28 7 -43 18 -16 18
-16 5 1 -20 27 2 64 53 87 23 11 35 20 27 20 -8 0 -30 -9 -48 -20z"/>
<path d="M7989 9502 c-15 -13 -19 -21 -11 -26 7 -4 12 -1 12 8 0 18 43 32 61
20 8 -4 9 -3 5 4 -11 18 -41 14 -67 -6z"/>
<path d="M8602 9485 c-11 -12 -10 -15 3 -15 8 0 15 7 15 15 0 18 -2 18 -18 0z"/>
<path d="M8024 9454 c-18 -14 -18 -15 4 -4 12 6 22 13 22 15 0 8 -5 6 -26 -11z"/>
<path d="M8828 9419 c-15 -21 -26 -39 -23 -39 7 0 58 70 54 74 -2 2 -16 -14
-31 -35z"/>
<path d="M11484 9436 c-3 -8 8 -33 25 -57 l31 -42 0 50 c0 37 -4 53 -16 57
-24 9 -34 7 -40 -8z"/>
<path d="M8692 9423 c-7 -2 -17 -14 -23 -26 -11 -21 -10 -21 11 1 12 13 28 21
36 18 8 -3 14 -1 14 4 0 11 -16 12 -38 3z"/>
<path d="M8339 9406 c7 -8 16 -27 21 -43 6 -20 8 -22 9 -8 0 11 -3 27 -9 35
-6 9 -5 17 3 22 7 5 3 8 -12 8 -19 0 -21 -3 -12 -14z"/>
<path d="M11580 9410 c0 -5 15 -38 33 -72 29 -57 32 -70 33 -158 1 -100 6
-120 29 -120 13 0 14 37 1 207 l-4 52 34 -16 c18 -9 36 -14 40 -11 14 14 -45
72 -100 99 -67 33 -66 32 -66 19z"/>
<path d="M11477 9370 c15 -16 32 -30 37 -30 6 0 -3 14 -19 30 -16 17 -33 30
-38 30 -5 0 4 -13 20 -30z"/>
<path d="M8500 9386 c0 -2 18 -6 39 -8 22 -2 37 0 35 4 -5 8 -74 11 -74 4z"/>
<path d="M8460 9365 c-11 -13 -11 -18 0 -28 10 -10 11 -9 5 2 -5 9 -1 19 10
28 11 7 14 13 8 13 -6 0 -16 -7 -23 -15z"/>
<path d="M8755 9370 l-30 -8 27 -1 c15 0 30 4 33 9 3 6 5 9 3 9 -2 -1 -16 -5
-33 -9z"/>
<path d="M8820 9370 c0 -5 5 -10 11 -10 5 0 7 5 4 10 -3 6 -8 10 -11 10 -2 0
-4 -4 -4 -10z"/>
<path d="M7911 9354 c0 -11 3 -14 6 -6 3 7 2 16 -1 19 -3 4 -6 -2 -5 -13z"/>
<path d="M8526 9361 c-14 -5 -16 -10 -8 -15 7 -4 19 0 28 8 17 17 11 19 -20 7z"/>
<path d="M8573 9345 c0 -8 4 -12 9 -9 5 3 6 10 3 15 -9 13 -12 11 -12 -6z"/>
<path d="M8133 9337 c21 -18 21 -25 0 -51 -14 -17 -13 -17 7 2 19 17 22 26 14
39 -6 9 -17 18 -25 21 -9 2 -8 -1 4 -11z"/>
<path d="M8411 9334 c0 -11 3 -14 6 -6 3 7 2 16 -1 19 -3 4 -6 -2 -5 -13z"/>
<path d="M8764 9342 c-7 -4 16 -7 50 -8 41 0 53 2 36 7 -34 10 -72 10 -86 1z"/>
<path d="M7790 9336 c0 -2 7 -7 16 -10 8 -3 12 -2 9 4 -6 10 -25 14 -25 6z"/>
<path d="M8056 9314 c-9 -8 -16 -23 -15 -32 0 -14 2 -14 6 -2 3 8 12 23 21 33
19 21 9 23 -12 1z"/>
<path d="M8498 9323 c12 -2 32 -2 45 0 12 2 2 4 -23 4 -25 0 -35 -2 -22 -4z"/>
<path d="M7715 9309 c-4 -6 -5 -12 -2 -15 2 -3 7 2 10 11 7 17 1 20 -8 4z"/>
<path d="M7747 9303 c-10 -9 -9 -23 1 -23 5 0 9 7 9 15 0 17 -1 18 -10 8z"/>
<path d="M8083 9303 c4 -3 2 -12 -5 -20 -8 -11 -7 -12 6 -7 18 7 22 34 4 34
-6 0 -8 -3 -5 -7z"/>
<path d="M8352 9280 c0 -19 2 -27 5 -17 2 9 2 25 0 35 -3 9 -5 1 -5 -18z"/>
<path d="M8414 9296 c-3 -7 -4 -33 -2 -57 3 -43 4 -42 8 14 5 58 4 68 -6 43z"/>
<path d="M11846 9302 c5 -4 24 -20 42 -36 31 -29 32 -29 32 -7 0 16 -10 26
-35 37 -38 15 -54 18 -39 6z"/>
<path d="M7700 9271 c0 -6 4 -13 10 -16 6 -3 7 1 4 9 -7 18 -14 21 -14 7z"/>
<path d="M8662 9260 c0 -14 2 -19 5 -12 2 6 2 18 0 25 -3 6 -5 1 -5 -13z"/>
<path d="M7750 9260 c-9 -6 -10 -10 -3 -10 6 0 15 5 18 10 8 12 4 12 -15 0z"/>
<path d="M8096 9263 c-3 -4 -25 -10 -49 -14 l-42 -6 36 -2 c19 0 44 6 55 14
10 8 16 15 13 15 -3 0 -9 -3 -13 -7z"/>
<path d="M8722 9245 c0 -16 2 -22 5 -12 2 9 2 23 0 30 -3 6 -5 -1 -5 -18z"/>
<path d="M7766 9245 c-11 -8 -15 -15 -9 -15 6 0 16 7 23 15 16 19 11 19 -14 0z"/>
<path d="M8775 9249 c-4 -6 -4 -13 -1 -16 3 -4 6 -1 6 5 0 15 57 16 66 0 12
-19 -28 -40 -66 -34 -26 4 -30 3 -15 -4 31 -14 51 -12 76 9 20 16 21 21 10 35
-15 18 -66 22 -76 5z"/>
<path d="M8285 9230 c-3 -5 -3 -14 0 -20 8 -12 45 -13 45 -1 0 5 -10 7 -22 3
-17 -4 -20 -2 -15 11 7 19 2 23 -8 7z"/>
<path d="M11880 9212 c0 -5 8 -16 19 -26 10 -9 26 -35 36 -57 17 -37 21 -40
53 -37 29 2 36 -1 48 -27 l13 -30 -6 30 c-3 17 -13 34 -22 39 -21 12 -87 78
-92 92 -5 14 -49 29 -49 16z"/>
<path d="M8361 9194 c-1 -20 44 -72 54 -62 3 3 -5 13 -19 21 -13 9 -27 27 -29
39 -4 21 -4 21 -6 2z"/>
<path d="M8651 9194 c0 -11 3 -14 6 -6 3 7 2 16 -1 19 -3 4 -6 -2 -5 -13z"/>
<path d="M8254 9176 c11 -9 29 -16 40 -15 17 1 16 2 -6 9 -14 4 -32 11 -40 15
-7 3 -4 -1 6 -9z"/>
<path d="M8416 9173 c-4 -9 -4 -14 0 -11 3 4 15 -3 26 -15 19 -22 19 -22 2 8
-10 17 -19 31 -20 33 -1 2 -5 -5 -8 -15z"/>
<path d="M8328 9163 c7 -3 16 -2 19 1 4 3 -2 6 -13 5 -11 0 -14 -3 -6 -6z"/>
<path d="M11534 9159 c-3 -6 8 -25 25 -43 l32 -31 -18 42 c-19 44 -27 51 -39
32z"/>
<path d="M11480 9141 c0 -4 17 -15 37 -25 38 -18 38 -18 20 2 -19 20 -57 36
-57 23z"/>
<path d="M11445 9090 c-3 -5 -2 -10 4 -10 5 0 13 5 16 10 3 6 2 10 -4 10 -5 0
-13 -4 -16 -10z"/>
<path d="M11415 9070 c-3 -5 -3 -10 2 -10 4 0 19 -3 33 -6 24 -5 24 -5 6 10
-23 19 -32 20 -41 6z"/>
<path d="M11510 9043 c14 -17 35 -33 48 -36 25 -5 26 -3 11 25 -8 15 -8 19 0
14 6 -4 11 -2 11 3 0 6 -6 11 -14 11 -7 0 -29 3 -47 7 l-33 6 24 -30z"/>
<path d="M12312 9039 c-9 -14 -11 -45 -7 -107 l5 -87 -23 68 c-13 37 -31 75
-39 83 -14 14 -18 13 -40 -8 -36 -33 -83 -127 -71 -139 12 -12 32 17 57 83 19
51 36 70 36 41 0 -20 53 -118 69 -128 12 -7 61 86 61 115 0 12 5 18 10 15 14
-8 13 38 -1 52 -8 8 -8 13 1 18 6 4 13 5 15 4 9 -10 7 -67 -3 -86 -7 -13 -10
-23 -6 -23 4 0 -1 -9 -11 -20 -18 -20 -18 -20 5 -18 12 2 25 -3 27 -10 4 -9
-2 -11 -20 -7 -20 5 -28 0 -45 -27 -12 -19 -17 -37 -12 -42 4 -4 6 -15 3 -22
-3 -9 0 -12 9 -9 16 7 94 121 103 153 6 22 5 23 -15 12 -31 -17 -33 -8 -5 23
28 30 32 42 11 34 -10 -4 -13 -1 -9 9 16 42 -80 64 -105 23z m42 -34 c6 -17 4
-18 -18 -9 -20 8 -21 24 -2 24 8 0 16 -7 20 -15z"/>
<path d="M11490 9026 c0 -2 7 -6 15 -10 8 -3 15 -1 15 4 0 6 -7 10 -15 10 -8
0 -15 -2 -15 -4z"/>
<path d="M11730 8974 c0 -14 7 -39 16 -56 17 -33 22 -98 10 -137 -8 -22 -6
-23 26 -16 18 4 34 8 35 9 2 2 -3 26 -11 54 -14 54 -13 55 37 18 25 -18 44
-21 135 -22 59 0 117 -4 130 -8 22 -7 28 0 14 20 -13 21 -52 25 -125 14 -54
-8 -81 -8 -103 0 -33 13 -138 89 -131 96 2 3 38 -4 78 -15 41 -11 97 -23 124
-27 28 -4 67 -13 89 -20 21 -8 40 -14 42 -14 10 0 -38 81 -49 85 -26 8 -107
12 -107 6 0 -4 21 -15 48 -24 40 -14 42 -16 12 -11 -87 13 -189 37 -227 55
l-43 19 0 -26z"/>
<path d="M12089 8933 c27 -47 31 -49 31 -15 0 26 -4 32 -20 32 -17 0 -19 -3
-11 -17z"/>
<path d="M5640 8628 c-40 -88 -15 -201 66 -292 34 -39 115 -106 128 -106 13 0
46 87 46 122 0 61 -31 114 -111 193 -39 39 -77 82 -85 98 -8 15 -17 27 -20 27
-3 0 -14 -19 -24 -42z"/>
<path d="M14702 8633 c-11 -15 -46 -53 -77 -83 -77 -75 -106 -122 -112 -184
-4 -40 -1 -60 17 -94 12 -23 25 -42 29 -42 3 0 27 16 52 34 127 93 187 240
145 355 -16 45 -29 48 -54 14z"/>
<path d="M5165 8616 c-5 -3 -31 -7 -57 -11 -27 -3 -48 -10 -48 -14 0 -5 16
-19 35 -32 22 -15 57 -62 97 -128 69 -118 111 -169 146 -182 30 -12 117 -14
161 -4 l33 7 -4 82 c-4 52 -13 97 -26 125 -27 59 -96 128 -141 142 -37 11
-178 22 -196 15z"/>
<path d="M15058 8608 c-103 -22 -181 -131 -196 -276 -8 -73 -8 -74 17 -84 14
-5 60 -8 101 -6 100 4 118 19 213 178 46 76 86 131 101 140 40 21 31 36 -31
49 -66 13 -139 13 -205 -1z"/>
<path d="M5976 8552 c-11 -18 -36 -136 -36 -171 0 -19 8 -61 17 -94 19 -71 86
-145 173 -195 67 -39 83 -40 99 -6 18 41 25 165 11 208 -14 45 -76 118 -139
165 -25 18 -62 49 -82 68 -20 19 -39 30 -43 25z"/>
<path d="M14384 8538 c-11 -11 -47 -42 -80 -67 -73 -55 -141 -131 -151 -169
-12 -42 -8 -173 6 -215 10 -30 17 -37 32 -32 41 13 112 60 164 107 46 42 58
60 75 115 11 36 20 81 20 100 0 42 -29 171 -39 178 -5 2 -17 -5 -27 -17z"/>
<path d="M6478 8249 c-31 -11 -77 -38 -103 -61 -68 -60 -90 -112 -65 -159 11
-19 11 -19 53 2 23 12 64 46 92 76 27 30 71 78 98 105 26 28 47 52 47 54 0 11
-72 0 -122 -17z"/>
<path d="M13835 8218 c28 -30 68 -76 90 -102 22 -26 61 -60 87 -76 27 -17 48
-35 48 -42 1 -26 30 55 30 82 0 72 -138 174 -252 187 l-53 6 50 -55z"/>
<path d="M5585 8216 c-104 -15 -158 -39 -226 -103 -41 -38 -99 -119 -99 -137
0 -11 24 -6 74 18 28 13 86 35 130 50 106 35 189 81 232 128 55 61 45 65 -111
44z"/>
<path d="M14660 8220 c0 -18 63 -81 106 -106 24 -14 114 -52 199 -84 131 -49
155 -55 155 -40 0 45 -112 159 -194 196 -68 31 -266 57 -266 34z"/>
<path d="M5777 8059 c-55 -25 -111 -43 -150 -47 l-62 -7 65 -37 c171 -96 324
-92 425 12 30 30 36 44 31 63 -9 37 -61 57 -148 56 -63 0 -85 -6 -161 -40z"/>
<path d="M14354 8090 c-12 -4 -31 -21 -44 -37 l-22 -28 54 -50 c61 -57 108
-75 190 -75 84 0 232 52 266 93 10 12 3 15 -44 21 -31 3 -98 24 -149 46 -80
34 -104 40 -162 39 -37 0 -78 -4 -89 -9z"/>
<path d="M6273 7970 c-118 -28 -173 -87 -173 -184 0 -52 6 -55 44 -25 14 11
54 32 88 46 149 60 174 84 157 146 -11 42 -13 43 -116 17z"/>
<path d="M14001 7953 c-15 -53 8 -80 105 -123 43 -19 100 -47 126 -62 26 -16
49 -28 52 -28 3 0 6 20 6 45 0 99 -64 164 -186 190 -93 20 -92 20 -103 -22z"/>
<path d="M9780 5183 c-115 -18 -177 -52 -220 -120 -27 -43 -30 -55 -30 -134 0
-83 2 -90 33 -130 17 -23 52 -55 77 -69 83 -49 220 -82 256 -62 15 8 9 11 -31
17 -125 17 -235 70 -281 136 -24 36 -29 52 -29 103 1 71 20 114 67 148 30 21
43 23 133 22 101 -1 110 -3 415 -86 220 -60 365 -63 540 -11 60 17 173 71 205
98 19 16 19 16 -10 12 -16 -3 -76 -21 -133 -41 -160 -56 -231 -50 -582 48 -89
25 -221 54 -280 61 -30 3 -66 7 -80 9 -14 2 -36 2 -50 -1z"/>
<path d="M5711 5140 c-79 -11 -183 -44 -236 -75 -55 -32 -115 -92 -131 -131
-17 -39 -18 -151 -3 -191 26 -69 112 -127 215 -144 59 -10 87 -10 180 5 140
21 234 52 234 77 0 14 -32 9 -144 -25 -176 -52 -316 -26 -382 72 -32 48 -39
101 -19 167 38 134 180 215 375 215 191 0 328 -78 380 -217 11 -30 20 -61 20
-69 0 -9 -23 -41 -50 -72 -126 -141 -210 -307 -266 -522 -27 -107 -38 -270
-17 -277 22 -8 115 90 178 187 75 114 84 131 78 148 -3 6 1 12 9 12 12 0 84
153 123 262 24 70 55 205 55 243 0 30 10 42 88 110 172 151 332 198 400 119
20 -23 23 -35 18 -72 -9 -65 -68 -162 -165 -269 -73 -82 -93 -99 -137 -113
-103 -33 -183 -103 -225 -195 -16 -35 -16 -40 -3 -43 17 -4 129 78 226 166 63
57 69 61 105 55 62 -10 130 -49 159 -93 67 -101 5 -360 -115 -477 -98 -96
-211 -79 -211 32 0 64 33 126 104 195 33 33 64 60 68 60 5 0 8 4 8 9 0 15
-114 -34 -163 -70 -70 -53 -102 -111 -102 -186 0 -51 4 -66 24 -87 52 -55 168
-59 271 -9 78 38 169 132 211 218 29 61 34 82 37 163 4 84 1 98 -22 145 -15
31 -41 63 -63 78 -40 28 -130 59 -170 59 -13 0 -23 3 -23 8 0 4 32 39 71 77
88 87 191 217 213 269 35 85 10 163 -61 187 -48 15 -138 6 -198 -20 -58 -26
-187 -111 -273 -180 -34 -28 -66 -51 -71 -51 -4 0 -17 19 -27 43 -39 86 -138
157 -266 191 -72 18 -228 27 -307 16z m489 -421 c0 -57 -40 -286 -55 -315 -8
-16 -15 -34 -15 -40 0 -37 -86 -189 -129 -228 -20 -18 -20 -18 -28 10 -14 49
-5 175 18 259 20 72 50 145 90 215 21 38 99 130 110 130 5 0 9 -14 9 -31z"/>
<path d="M14972 5073 c-34 -7 -48 -35 -91 -193 -22 -80 -58 -210 -80 -290 -77
-275 -104 -381 -97 -387 9 -9 6 -15 91 182 125 290 253 609 260 649 6 32 5 36
-13 36 -11 0 -26 2 -34 4 -7 2 -23 1 -36 -1z"/>
<path d="M10300 4877 l-55 -32 -8 -75 c-4 -41 -15 -120 -24 -175 l-17 -100
-79 -82 c-144 -148 -221 -274 -233 -379 -6 -45 -4 -55 10 -60 42 -16 201 180
295 364 67 132 96 162 196 208 46 22 67 25 106 21 68 -8 114 -32 152 -80 31
-39 32 -45 31 -127 0 -64 -6 -101 -24 -150 -36 -96 -76 -164 -121 -204 -47
-43 -77 -56 -129 -56 -129 0 -92 211 54 311 68 46 37 66 -41 27 -84 -42 -167
-141 -177 -212 -28 -183 219 -214 394 -50 123 115 178 262 150 398 -22 108
-97 175 -220 197 -57 10 -75 9 -126 -6 -32 -9 -79 -28 -103 -41 -24 -13 -45
-23 -47 -21 -2 1 11 50 27 107 17 58 37 130 45 160 8 30 17 63 20 73 8 26 -15
21 -76 -16z m-160 -538 c-36 -91 -116 -209 -142 -209 -15 0 -8 53 12 96 20 41
138 179 147 171 2 -3 -6 -29 -17 -58z"/>
<path d="M12272 4552 c-85 -34 -184 -130 -291 -282 -29 -41 -51 -66 -47 -55 3
11 16 63 30 115 14 52 32 121 41 154 19 69 12 81 -40 72 -46 -9 -53 -25 -124
-281 -10 -38 -31 -110 -45 -160 -32 -110 -34 -145 -6 -145 42 0 74 27 125 105
55 85 105 135 134 135 29 0 48 -22 91 -105 44 -86 88 -135 121 -135 58 0 171
93 296 244 56 67 72 82 66 60 -4 -16 -8 -65 -8 -109 1 -70 4 -85 28 -123 84
-131 297 -103 473 61 111 103 240 279 231 314 -3 14 -7 11 -18 -12 -8 -17 -20
-37 -26 -45 -37 -44 -63 -79 -63 -85 0 -4 -46 -53 -102 -110 -119 -118 -200
-165 -285 -165 -68 0 -122 45 -130 107 -6 42 -5 43 33 58 247 98 379 230 330
332 -53 111 -213 93 -344 -38 -31 -32 -60 -53 -63 -47 -3 5 -40 -37 -81 -94
-93 -126 -194 -237 -240 -262 -62 -33 -81 -20 -138 97 -68 137 -95 158 -164
122 -16 -9 -31 -13 -34 -11 -7 7 83 131 125 171 40 39 92 59 138 53 23 -2 34
-11 44 -35 17 -39 55 -45 89 -13 25 23 26 29 12 64 -20 53 -91 75 -158 48z
m715 -38 c22 -22 24 -30 18 -72 -14 -95 -86 -177 -199 -227 -97 -43 -103 -34
-59 92 42 124 100 205 159 223 45 13 53 12 81 -16z"/>
<path d="M13689 4550 c-53 -28 -143 -138 -236 -290 -19 -30 -32 -46 -30 -35 7
25 42 150 68 234 31 104 24 116 -48 90 -28 -9 -33 -19 -63 -112 -17 -56 -36
-113 -40 -127 -5 -14 -16 -50 -24 -80 -8 -30 -26 -94 -40 -143 -14 -48 -26
-92 -26 -97 0 -14 63 -12 82 3 9 6 45 64 79 127 34 63 72 135 86 160 13 24 30
51 38 60 8 9 15 23 15 31 0 8 8 22 18 31 9 9 35 35 57 58 43 44 79 59 104 43
19 -12 27 -69 13 -86 -6 -7 -13 -29 -17 -50 -4 -20 -23 -81 -42 -135 -34 -95
-62 -199 -63 -234 0 -14 8 -18 35 -18 29 0 38 6 65 44 16 25 30 47 30 50 0 4
18 36 40 72 22 36 40 68 40 71 0 3 9 16 20 30 11 14 20 32 20 39 0 8 7 22 16
32 8 9 35 44 60 77 70 96 85 108 133 109 l36 1 -2 -63 c-1 -35 -6 -69 -12 -76
-15 -18 -48 -112 -76 -216 -23 -88 -21 -115 12 -152 39 -43 120 -25 198 43 51
45 156 179 149 190 -3 5 1 9 9 9 8 0 24 15 36 33 40 62 46 71 59 85 13 15 16
42 5 42 -5 0 -16 -12 -25 -28 -68 -107 -216 -283 -264 -313 -19 -11 -46 -19
-61 -17 -25 3 -28 7 -31 45 -2 28 6 68 24 115 100 268 103 290 55 339 -16 16
-39 29 -51 29 -29 0 -88 -32 -132 -72 -48 -44 -138 -157 -138 -174 0 -8 -4
-14 -9 -14 -5 0 -23 -23 -41 -50 -18 -28 -34 -49 -36 -47 -2 2 7 42 20 90 27
97 41 196 32 225 -14 42 -88 53 -147 22z"/>
<path d="M7396 4539 c-158 -39 -313 -204 -348 -369 -10 -48 -9 -64 7 -113 23
-74 60 -107 119 -107 71 0 151 66 230 193 17 26 32 45 34 43 2 -2 -4 -32 -12
-66 -20 -78 -20 -120 0 -148 22 -32 89 -30 140 4 39 26 184 173 184 186 0 18
-25 6 -52 -24 -105 -120 -153 -153 -184 -127 -26 21 -11 104 51 284 66 192 68
211 20 231 -46 19 -140 26 -189 13z m123 -37 c21 -16 22 -18 6 -57 -15 -37
-92 -192 -125 -253 -54 -100 -145 -192 -189 -192 -87 0 -80 131 16 304 94 166
223 254 292 198z"/>
<path d="M8334 4532 c-11 -9 -51 -70 -88 -136 -37 -65 -85 -143 -107 -175 -21
-31 -34 -58 -28 -60 5 -1 12 -1 13 0 2 2 29 40 60 83 31 43 56 77 56 75 0 -3
-11 -38 -24 -79 -55 -168 -55 -240 -1 -276 22 -14 32 -15 64 -6 57 18 155 119
244 252 20 30 46 66 57 80 24 29 25 31 -14 -95 -33 -109 -37 -137 -25 -179 7
-27 19 -41 44 -53 31 -15 36 -15 78 6 99 48 366 353 342 391 -8 14 -35 -6 -35
-25 0 -8 -4 -15 -8 -17 -5 -1 -29 -32 -53 -67 -65 -97 -200 -231 -231 -231
-67 0 -59 73 32 303 87 218 88 244 6 217 -30 -9 -43 -27 -105 -136 -39 -69
-71 -129 -71 -133 0 -4 -9 -16 -20 -26 -11 -10 -20 -23 -20 -29 0 -7 -8 -19
-17 -28 -10 -10 -38 -44 -63 -77 -56 -73 -105 -109 -128 -94 -38 24 -14 130
84 368 20 50 39 107 41 128 6 36 5 37 -28 37 -19 0 -43 -8 -55 -18z"/>
<path d="M11108 4535 c-16 -9 -29 -27 -33 -46 -4 -18 -32 -107 -62 -198 -67
-201 -73 -260 -30 -297 36 -31 70 -30 135 2 63 31 145 111 224 218 32 44 58
75 58 70 0 -5 -7 -34 -16 -64 -28 -101 -61 -235 -68 -276 -6 -34 -15 -47 -50
-72 -63 -45 -142 -130 -171 -184 -31 -57 -46 -178 -25 -203 11 -13 18 -12 59
11 58 32 78 48 122 104 49 63 77 113 109 200 24 66 38 85 101 147 41 39 70 75
66 80 -5 4 -14 1 -20 -7 -7 -8 -31 -30 -55 -49 l-43 -34 6 39 c10 60 31 131
101 346 35 108 64 204 64 212 0 25 -55 20 -80 -6 -11 -12 -50 -75 -87 -140
-65 -115 -177 -275 -218 -311 -35 -31 -75 -48 -103 -45 -27 3 -27 4 -25 73 1
56 11 97 49 200 55 154 73 215 67 233 -7 16 -42 15 -75 -3z m192 -708 c0 -27
-33 -146 -50 -177 -18 -34 -91 -110 -105 -110 -34 0 -23 124 16 187 21 34 115
123 130 123 5 0 9 -10 9 -23z"/>
<path d="M9021 4416 c-11 -13 -11 -20 -3 -28 8 -8 13 -7 18 5 10 27 0 41 -15
23z"/>
<path d="M11823 4392 c-3 -12 -9 -22 -13 -22 -13 0 -150 -182 -144 -191 6 -10
50 34 89 87 11 15 29 39 40 53 30 38 49 80 41 88 -4 4 -9 -3 -13 -15z"/>
<path d="M7873 4375 c-8 -22 6 -33 17 -15 13 20 12 30 0 30 -6 0 -13 -7 -17
-15z"/>
<path d="M7840 4325 c-7 -9 -10 -18 -7 -22 8 -7 37 15 37 28 0 14 -16 11 -30
-6z"/>
<path d="M7788 4252 c-10 -15 -23 -35 -30 -44 -7 -9 -9 -21 -4 -25 10 -10 65
57 66 80 0 25 -12 21 -32 -11z"/>
<path d="M7842 4193 c-23 -20 -52 -109 -52 -160 0 -41 38 -83 75 -83 35 0 94
32 130 70 32 35 31 35 -27 6 -82 -42 -94 3 -43 162 7 20 4 22 -28 22 -19 0
-44 -8 -55 -17z"/>
<path d="M11596 4114 c-26 -30 -46 -58 -42 -61 7 -7 106 92 106 106 0 21 -16
10 -64 -45z"/>
<path d="M8056 4106 c-26 -32 -33 -46 -22 -46 9 0 16 5 16 10 0 6 12 22 26 35
14 13 24 29 22 36 -2 6 -21 -10 -42 -35z"/>
<path d="M14614 4066 c-3 -13 -4 -37 -2 -52 3 -28 5 -29 58 -29 45 0 55 3 58
18 7 37 -7 65 -39 76 -49 17 -68 14 -75 -13z"/>
</g>
</svg>
